<svg version="1.0" xmlns="http://www.w3.org/2000/svg" fill="#e3e7eb" width="700.000000pt" height="704.000000pt" viewBox="0 0 700.000000 704.000000" preserveAspectRatio="xMidYMid meet">
  <g transform="translate(0.000000,704.000000) scale(0.100000,-0.100000)" stroke="none">
    <path d="M6040 6965 c-1230 -157 -1979 -1008 -2160 -2452 -6 -51 -9 -96 -6
    -101 3 -5 74 -12 158 -16 84 -3 193 -11 242 -16 49 -6 93 -7 97 -3 4 4 12 62
    19 128 53 540 244 1023 544 1374 215 251 524 444 857 535 115 31 330 60 383
    52 104 -17 178 -73 211 -160 50 -130 -53 -551 -208 -851 -214 -416 -585 -833
    -994 -1119 -56 -39 -102 -73 -102 -76 -1 -3 70 -22 157 -43 181 -44 399 -105
    425 -118 25 -14 150 92 367 310 485 487 764 1014 860 1624 28 178 25 434 -7
    532 -58 177 -169 293 -344 358 -127 48 -327 65 -499 42z"></path>
    <path d="M1680 6500 c-448 -54 -859 -170 -1194 -337 -252 -126 -321 -180 -380
    -303 -30 -62 -31 -72 -35 -210 -12 -504 126 -904 381 -1105 116 -92 292 -141
    473 -132 275 14 476 168 633 486 49 101 56 121 54 168 -3 63 -27 130 -53 143
    -57 31 -110 3 -193 -105 -86 -109 -184 -193 -282 -242 -72 -35 -84 -38 -163
    -38 -69 0 -94 5 -127 22 -96 51 -207 230 -239 388 -22 101 -24 265 -6 374 l14
    83 61 28 c33 15 81 37 106 48 250 117 663 223 975 252 186 17 172 20 264 -66
    226 -213 403 -539 515 -954 49 -179 106 -505 106 -603 0 -22 5 -40 14 -43 7
    -3 67 2 132 11 66 8 170 18 232 22 62 3 114 9 116 12 2 3 -3 61 -10 129 -90
    814 -407 1496 -868 1869 -160 130 -213 140 -526 103z"></path>
    <path d="M1525 4483 c-66 -73 -170 -151 -255 -192 -30 -15 -60 -30 -67 -34 -8
    -5 2 -27 35 -71 26 -35 52 -71 57 -80 9 -14 18 -13 95 8 77 22 149 39 380 92
    41 9 76 18 78 20 2 1 -32 44 -75 96 -43 51 -100 123 -128 161 -27 37 -51 67
    -54 66 -3 0 -33 -30 -66 -66z"></path>
    <path d="M3240 4114 c-25 -2 -124 -8 -220 -14 -267 -16 -541 -51 -880 -111
    -148 -26 -213 -39 -464 -94 -37 -8 -127 -31 -200 -50 -72 -19 -142 -37 -156
    -41 -144 -36 -219 -68 -334 -141 -180 -116 -334 -272 -420 -426 -131 -235
    -400 -1092 -446 -1420 -6 -39 -12 -79 -15 -87 -8 -28 -34 -364 -41 -525 -5
    -125 -3 -182 10 -260 42 -252 153 -477 307 -619 90 -84 160 -116 364 -169 117
    -30 125 -31 355 -31 218 0 244 2 365 27 72 15 153 34 180 42 28 8 82 23 120
    34 158 44 291 83 315 91 14 5 72 23 130 40 58 18 177 57 265 88 232 80 277 90
    510 114 300 32 752 32 1009 0 217 -27 261 -37 496 -112 102 -32 232 -73 290
    -90 58 -18 114 -36 125 -41 11 -4 43 -15 70 -23 28 -8 124 -37 215 -64 266
    -81 372 -97 650 -97 207 0 248 3 340 23 118 25 237 67 303 105 82 48 200 194
    270 333 82 162 117 311 124 524 12 353 -42 737 -169 1215 -16 61 -36 135 -44
    165 -8 30 -19 64 -24 75 -5 11 -25 70 -45 130 -47 141 -145 379 -197 475 -107
    200 -301 392 -535 529 -71 40 -82 45 -255 106 -381 135 -864 232 -1393 281
    -159 14 -862 28 -975 18z m-1107 -1185 c15 -11 31 -37 37 -57 13 -49 60 -378
    60 -425 0 -19 4 -38 9 -41 9 -6 242 24 384 50 102 18 134 13 170 -24 26 -28
    45 -103 66 -262 12 -86 7 -115 -22 -147 -27 -30 -57 -39 -232 -63 -82 -12
    -181 -27 -220 -33 -83 -14 -79 16 -37 -279 30 -207 31 -234 5 -274 -19 -30
    -51 -41 -173 -60 -188 -28 -231 -29 -262 -5 -33 27 -42 54 -68 216 -39 247
    -52 315 -61 315 -5 0 -86 -11 -181 -25 -310 -44 -327 -43 -370 15 -22 30 -63
    295 -54 345 13 70 30 76 375 130 84 13 157 27 161 32 6 7 -6 129 -39 381 -19
    150 3 181 151 206 190 32 265 34 301 5z m2923 -54 c117 -28 158 -47 270 -126
    80 -57 104 -81 175 -176 122 -163 171 -415 121 -624 -29 -121 -52 -176 -108
    -260 -64 -96 -123 -154 -214 -215 -98 -65 -130 -79 -247 -108 -160 -40 -201
    -41 -338 -10 -143 32 -200 56 -301 125 -121 84 -229 217 -274 337 -34 89 -60
    220 -60 302 0 138 50 310 121 420 185 286 518 417 855 335z"></path>
    <path d="M4741 2432 c-66 -25 -149 -106 -183 -177 -76 -161 -1 -355 167 -436
    83 -40 191 -41 268 -3 71 36 144 108 173 173 34 76 34 188 -1 267 -28 64 -97
    134 -165 167 -61 29 -196 34 -259 9z"></path>
  </g>
</svg>
